<svg xmlns="http://www.w3.org/2000/svg" xmlns:xlink="http://www.w3.org/1999/xlink" width="354" height="63" viewBox="0 0 354 63">
  <defs>
    <clipPath id="clip-Logo">
      <rect width="354" height="63"/>
    </clipPath>
  </defs>
  <g id="Logo" clip-path="url(#clip-Logo)">
    <g id="Grupo_30" data-name="Grupo 30" transform="translate(-495.333 -346.999)">
      <g id="ATELIER_GALO" data-name="ATELIER GALO" style="isolation: isolate">
        <g id="Grupo_30-2" data-name="Grupo 30" style="isolation: isolate">
          <path id="Trazado_1" data-name="Trazado 1" d="M514.97,360.155h4.212a.629.629,0,0,1,.624.364l16.953,36.088c.156.365,0,.624-.364.624h-9.1a.629.629,0,0,1-.624-.364l-1.976-3.9a.561.561,0,0,0-.572-.364H509.978a.629.629,0,0,0-.624.364l-1.976,3.9a.563.563,0,0,1-.572.364h-9.049c-.363,0-.52-.259-.363-.624l16.952-36.088A.629.629,0,0,1,514.97,360.155Zm-.624,23.14h5.408c.364,0,.52-.259.364-.624L517.466,377a.379.379,0,0,0-.728,0l-2.756,5.668C513.826,383.036,513.982,383.3,514.346,383.3Z" fill="#231f20"/>
          <path id="Trazado_2" data-name="Trazado 2" d="M560.055,360.674v8.269a.491.491,0,0,1-.52.519h-8.788a.492.492,0,0,0-.52.521v26.729a.491.491,0,0,1-.52.519h-9.568a.491.491,0,0,1-.521-.519V369.983a.492.492,0,0,0-.519-.521h-8.841a.491.491,0,0,1-.52-.519v-8.269a.491.491,0,0,1,.52-.519h29.277A.491.491,0,0,1,560.055,360.674Z" fill="#231f20"/>
          <path id="Trazado_3" data-name="Trazado 3" d="M586.21,388.443v8.269a.491.491,0,0,1-.52.519H561.978a.491.491,0,0,1-.52-.519V360.674a.491.491,0,0,1,.52-.519H585.17a.491.491,0,0,1,.52.519v8.269a.491.491,0,0,1-.52.519H572.534a.492.492,0,0,0-.52.521v3.744a.492.492,0,0,0,.52.521h9.153a.49.49,0,0,1,.519.519v8.269a.491.491,0,0,1-.519.519h-9.153a.492.492,0,0,0-.52.521V387.4a.491.491,0,0,0,.52.52H585.69A.491.491,0,0,1,586.21,388.443Z" fill="#231f20"/>
          <path id="Trazado_4" data-name="Trazado 4" d="M612,388.443v8.269a.491.491,0,0,1-.52.519H589.226a.491.491,0,0,1-.52-.519V360.674a.491.491,0,0,1,.52-.519h9.516a.491.491,0,0,1,.52.519V387.4a.491.491,0,0,0,.52.52h11.7A.491.491,0,0,1,612,388.443Z" fill="#231f20"/>
          <path id="Trazado_5" data-name="Trazado 5" d="M625.471,397.231h-9.516a.491.491,0,0,1-.52-.519V360.674a.491.491,0,0,1,.52-.519h9.516a.491.491,0,0,1,.52.519v36.038A.491.491,0,0,1,625.471,397.231Z" fill="#231f20"/>
          <path id="Trazado_6" data-name="Trazado 6" d="M655.215,388.443v8.269a.491.491,0,0,1-.52.519H630.982a.491.491,0,0,1-.52-.519V360.674a.491.491,0,0,1,.52-.519h23.193a.491.491,0,0,1,.52.519v8.269a.491.491,0,0,1-.52.519H641.538a.492.492,0,0,0-.519.521v3.744a.492.492,0,0,0,.519.521h9.152a.491.491,0,0,1,.521.519v8.269a.491.491,0,0,1-.521.519h-9.152a.491.491,0,0,0-.519.521V387.4a.491.491,0,0,0,.519.52H654.7A.491.491,0,0,1,655.215,388.443Z" fill="#231f20"/>
          <path id="Trazado_7" data-name="Trazado 7" d="M657.346,396.712V360.674a.491.491,0,0,1,.52-.519H674.61a13.54,13.54,0,0,1,13.729,13.364,12.759,12.759,0,0,1-6.189,11.232.512.512,0,0,0-.155.728l6.031,11.128c.208.365,0,.624-.363.624h-10.3a.63.63,0,0,1-.624-.364l-4.94-9.62a.631.631,0,0,0-.624-.364h-2.756a.491.491,0,0,0-.52.52v9.309a.491.491,0,0,1-.52.519h-9.516A.491.491,0,0,1,657.346,396.712Zm15.6-19.085c3.172,0,4.784-2.08,4.784-4.108a4.32,4.32,0,0,0-4.419-4.057h-4.889a.492.492,0,0,0-.52.521v7.124a.491.491,0,0,0,.52.52Z" fill="#231f20"/>
          <path id="Trazado_8" data-name="Trazado 8" d="M747.359,376.744v1.923c0,10.4-6.812,18.721-17.577,18.721a18.787,18.787,0,0,1-18.772-18.721c0-10.3,7.7-18.668,18.045-18.668,8.891,0,15.236,5.356,17.212,12.064.1.364-.052.572-.26.572l-8.788,1.092a.906.906,0,0,1-.937-.416,7.4,7.4,0,0,0-6.552-4c-4.992,0-8.164,4.056-8.164,9.36s3.276,9.412,8.892,9.412c4.368,0,6.293-2.7,6.293-4,0-.313-.156-.521-.469-.521h-6.864a.491.491,0,0,1-.52-.519v-6.292a.492.492,0,0,1,.52-.521h17.421A.492.492,0,0,1,747.359,376.744Z" fill="#231f20"/>
          <path id="Trazado_9" data-name="Trazado 9" d="M763.946,360.155h4.212a.627.627,0,0,1,.624.364l16.953,36.088c.157.365,0,.624-.364.624h-9.1a.631.631,0,0,1-.625-.364l-1.975-3.9a.563.563,0,0,0-.572-.364H758.954a.63.63,0,0,0-.624.364l-1.976,3.9a.561.561,0,0,1-.572.364h-9.049c-.363,0-.519-.259-.363-.624l16.952-36.088A.631.631,0,0,1,763.946,360.155Zm-.624,23.14h5.408c.365,0,.521-.259.365-.624L766.442,377a.378.378,0,0,0-.727,0l-2.757,5.668C762.8,383.036,762.958,383.3,763.322,383.3Z" fill="#231f20"/>
          <path id="Trazado_10" data-name="Trazado 10" d="M810.9,388.443v8.269a.491.491,0,0,1-.519.519H788.126a.491.491,0,0,1-.521-.519V360.674a.491.491,0,0,1,.521-.519h9.517a.491.491,0,0,1,.519.519V387.4a.492.492,0,0,0,.521.52h11.7A.491.491,0,0,1,810.9,388.443Z" fill="#231f20"/>
          <path id="Trazado_11" data-name="Trazado 11" d="M847.771,378.667c0,10.712-8.215,18.721-18.928,18.721s-18.981-8.009-18.981-18.721S818.131,360,828.843,360,847.771,367.955,847.771,378.667Zm-27.352,0c0,6.812,4.576,9.412,8.424,9.412,3.8,0,8.32-2.6,8.32-9.412s-4.524-9.36-8.32-9.36C824.995,369.307,820.419,371.855,820.419,378.667Z" fill="#231f20"/>
        </g>
      </g>
    </g>
  </g>
</svg>
