<svg xmlns="http://www.w3.org/2000/svg" xmlns:xlink="http://www.w3.org/1999/xlink" width="63" height="63" viewBox="0 0 63 63">
  <defs>
    <clipPath id="clip-bh">
      <rect width="63" height="63"/>
    </clipPath>
  </defs>
  <g id="bh" clip-path="url(#clip-bh)">
    <g id="BH-2" data-name="BH" transform="translate(-667.183 -472.969)" style="isolation: isolate">
      <g id="Grupo_32" data-name="Grupo 32" transform="translate(669.183 488.905)" style="isolation: isolate">
        <path id="Trazado_14" data-name="Trazado 14" d="M693.686,511.363c0,5.068-4.537,8.669-12.364,8.669H669.183v-.622c3.292-.711,4.135-3.245,4.135-8.36V497.265c0-5.2-1.023-7.16-4-7.736V488.9h12.806c4.937,0,10.094,2.49,10.094,7.56,0,3.514-2.445,6.135-6.313,7.027C691.55,504.556,693.686,507.8,693.686,511.363Zm-16.854-21.347v13.12h4.935c3.426,0,6.138-2.4,6.138-6.76,0-4.137-2.447-6.491-6.849-6.491C679.989,489.885,678.166,489.927,676.832,490.016Zm12.361,21.478c0-4.713-2.712-7.336-7.649-7.336h-4.713v10.848a5.5,5.5,0,0,0,.756,3.248c.533.667,1.6.8,3.112.8,2.892,0,4.757-.489,6.048-1.556A7.515,7.515,0,0,0,689.194,511.494Z" transform="translate(-669.183 -488.905)" fill="#231f20"/>
        <path id="Trazado_15" data-name="Trazado 15" d="M713.1,519.41v.622c-2.089-.178-4.046-.22-5.915-.22-1.909,0-3.821.042-5.913.22v-.622c3.2-.489,4.134-3.245,4.134-7.827v-7.291H689.756v7.291c0,4.581.934,7.338,4.179,7.827v.622c-2.089-.178-4-.22-5.913-.22s-3.826.042-5.96.22v-.622c3.023-.533,4.135-3.112,4.135-8.047v-13.92c0-5.2-.978-7.427-4-7.914V488.9c2.09.133,4.046.222,5.826.222,1.734,0,3.734-.089,5.782-.222v.625c-3.2.487-4.048,2.888-4.048,7.647v6.091h15.651v-6.091c0-4.759-.8-7.16-4-7.647V488.9c2.047.133,4,.222,5.78.222,1.736,0,3.737-.089,5.782-.222v.625c-3.025.487-4,2.71-4,7.914v13.92C708.967,516.3,710.078,518.876,713.1,519.41Z" transform="translate(-653.432 -488.905)" fill="#231f20"/>
      </g>
    </g>
  </g>
</svg>
