<svg xmlns="http://www.w3.org/2000/svg" xmlns:xlink="http://www.w3.org/1999/xlink" width="63" height="63" viewBox="0 0 63 63">
  <defs>
    <clipPath id="clip-Ig">
      <rect width="63" height="63"/>
    </clipPath>
  </defs>
  <g id="Ig" clip-path="url(#clip-Ig)">
    <g id="IG-2" data-name="IG" transform="translate(-852.825 -527.741)" style="isolation: isolate">
      <g id="Grupo_31" data-name="Grupo 31" transform="translate(860.825 542.741)" style="isolation: isolate">
        <path id="Trazado_12" data-name="Trazado 12" d="M860.825,573.662c3.086-.49,4.159-3.22,4.159-8.407V552.016c0-5.726-.895-7.917-4.027-8.409v-.626c2.057.132,3.893.221,5.771.221,1.836,0,3.714-.043,5.816-.221v.626c-3.177.492-4.027,2.683-4.027,8.409v13.239c0,5.187,1.075,7.917,4.161,8.407v.628c-2.1-.179-4.027-.224-5.95-.224-1.878,0-3.8.045-5.9.224Z" transform="translate(-860.825 -542.444)" fill="#231f20"/>
        <path id="Trazado_13" data-name="Trazado 13" d="M867.745,558.844c0-9.261,6.618-16.1,15.743-16.1a21.4,21.4,0,0,1,10.69,2.862c.132,2.82.179,5.682.132,8.5h-.668c-1.165-4.519-5.458-10.377-11.092-10.377-5.726,0-10.111,5.726-10.111,15.3,0,9.661,4.608,15.119,11.271,15.119a10.453,10.453,0,0,0,7.428-2.907v-3.58c0-4.3-2.954-6.126-6.4-6.484V560.5h13.641v.673c-2.459.4-3.577,1.789-3.577,5.1v5.187a18.905,18.905,0,0,1-11.048,3.669C874.632,575.124,867.745,568.279,867.745,558.844Z" transform="translate(-852.273 -542.741)" fill="#231f20"/>
      </g>
    </g>
  </g>
</svg>
